<?xml version="1.0" standalone="no"?>
<svg xmlns:xlink="http://www.w3.org/1999/xlink" id="wave" style="transform:rotate(0deg); transition: 0.3s" viewBox="0 0 1440 490" version="1.1" xmlns="http://www.w3.org/2000/svg"><defs><linearGradient id="sw-gradient-0" x1="0" x2="0" y1="1" y2="0"><stop stop-color="rgba(164.905, 24.848, 237.106, 1)" offset="0%"/><stop stop-color="rgba(255, 133.259, 209.809, 1)" offset="100%"/></linearGradient></defs><path style="transform:translate(0, 0px); opacity:1" fill="url(#sw-gradient-0)" d="M0,98L60,106.2C120,114,240,131,360,187.8C480,245,600,343,720,375.7C840,408,960,376,1080,310.3C1200,245,1320,147,1440,163.3C1560,180,1680,310,1800,326.7C1920,343,2040,245,2160,220.5C2280,196,2400,245,2520,236.8C2640,229,2760,163,2880,114.3C3000,65,3120,33,3240,89.8C3360,147,3480,294,3600,359.3C3720,425,3840,408,3960,400.2C4080,392,4200,392,4320,383.8C4440,376,4560,359,4680,351.2C4800,343,4920,343,5040,351.2C5160,359,5280,376,5400,392C5520,408,5640,425,5760,392C5880,359,6000,278,6120,277.7C6240,278,6360,359,6480,351.2C6600,343,6720,245,6840,245C6960,245,7080,343,7200,359.3C7320,376,7440,310,7560,310.3C7680,310,7800,376,7920,400.2C8040,425,8160,408,8280,334.8C8400,261,8520,131,8580,65.3L8640,0L8640,490L8580,490C8520,490,8400,490,8280,490C8160,490,8040,490,7920,490C7800,490,7680,490,7560,490C7440,490,7320,490,7200,490C7080,490,6960,490,6840,490C6720,490,6600,490,6480,490C6360,490,6240,490,6120,490C6000,490,5880,490,5760,490C5640,490,5520,490,5400,490C5280,490,5160,490,5040,490C4920,490,4800,490,4680,490C4560,490,4440,490,4320,490C4200,490,4080,490,3960,490C3840,490,3720,490,3600,490C3480,490,3360,490,3240,490C3120,490,3000,490,2880,490C2760,490,2640,490,2520,490C2400,490,2280,490,2160,490C2040,490,1920,490,1800,490C1680,490,1560,490,1440,490C1320,490,1200,490,1080,490C960,490,840,490,720,490C600,490,480,490,360,490C240,490,120,490,60,490L0,490Z"/><defs><linearGradient id="sw-gradient-1" x1="0" x2="0" y1="1" y2="0"><stop stop-color="rgba(62, 101.981, 243, 1)" offset="0%"/><stop stop-color="rgba(255, 11, 189.222, 1)" offset="100%"/></linearGradient></defs><path style="transform:translate(0, 50px); opacity:0.9" fill="url(#sw-gradient-1)" d="M0,0L60,57.2C120,114,240,229,360,228.7C480,229,600,114,720,98C840,82,960,163,1080,163.3C1200,163,1320,82,1440,40.8C1560,0,1680,0,1800,32.7C1920,65,2040,131,2160,204.2C2280,278,2400,359,2520,400.2C2640,441,2760,441,2880,392C3000,343,3120,245,3240,196C3360,147,3480,147,3600,147C3720,147,3840,147,3960,171.5C4080,196,4200,245,4320,220.5C4440,196,4560,98,4680,89.8C4800,82,4920,163,5040,187.8C5160,212,5280,180,5400,204.2C5520,229,5640,310,5760,343C5880,376,6000,359,6120,326.7C6240,294,6360,245,6480,236.8C6600,229,6720,261,6840,277.7C6960,294,7080,294,7200,245C7320,196,7440,98,7560,89.8C7680,82,7800,163,7920,228.7C8040,294,8160,343,8280,326.7C8400,310,8520,229,8580,187.8L8640,147L8640,490L8580,490C8520,490,8400,490,8280,490C8160,490,8040,490,7920,490C7800,490,7680,490,7560,490C7440,490,7320,490,7200,490C7080,490,6960,490,6840,490C6720,490,6600,490,6480,490C6360,490,6240,490,6120,490C6000,490,5880,490,5760,490C5640,490,5520,490,5400,490C5280,490,5160,490,5040,490C4920,490,4800,490,4680,490C4560,490,4440,490,4320,490C4200,490,4080,490,3960,490C3840,490,3720,490,3600,490C3480,490,3360,490,3240,490C3120,490,3000,490,2880,490C2760,490,2640,490,2520,490C2400,490,2280,490,2160,490C2040,490,1920,490,1800,490C1680,490,1560,490,1440,490C1320,490,1200,490,1080,490C960,490,840,490,720,490C600,490,480,490,360,490C240,490,120,490,60,490L0,490Z"/></svg>